<svg width="67.853210" height="83.999939" viewBox="0 0 67.8532 83.9999" fill="none" xmlns="http://www.w3.org/2000/svg" xmlns:xlink="http://www.w3.org/1999/xlink">
	<desc>
			Created with Pixso.
	</desc>
	<defs/>
	<path d="M1.17 0C0.46 0 -0.06 0.62 0 1.39L5.97 74.4C6.03 75.17 6.64 75.96 7.32 76.17L32.64 83.84C33.32 84.05 34.44 84.05 35.12 83.84L60.51 76.16C61.19 75.95 61.8 75.15 61.87 74.39L67.84 1.39C67.91 0.62 67.38 0 66.67 0L1.17 0ZM55.14 16.74C55.08 17.42 54.98 18.61 54.92 19.38L54.76 21.3C54.7 22.07 54.61 23.17 54.56 23.74C54.52 24.32 54.47 24.79 54.46 24.79C54.45 24.79 53.87 24.79 53.16 24.79L35.21 24.79C34.5 24.79 33.92 24.79 33.91 24.79C33.9 24.79 33.31 24.79 32.61 24.79L23.15 24.79C22.44 24.79 21.92 25.42 21.98 26.19L22.53 32.91C22.59 33.68 23.23 34.31 23.93 34.31L32.61 34.31C33.32 34.31 33.9 34.31 33.91 34.31C33.92 34.31 34.5 34.31 35.21 34.31L50.12 34.31C50.83 34.31 51.92 34.31 52.55 34.31C53.18 34.31 53.65 34.87 53.59 35.56C53.54 36.24 53.44 37.43 53.38 38.2L51.6 59.88C51.54 60.65 51.46 61.63 51.43 62.06C51.39 62.5 50.8 63.02 50.12 63.22L35.16 67.75C34.48 67.96 33.91 68.13 33.9 68.13C33.89 68.13 33.33 67.96 32.64 67.76L17.67 63.22C16.99 63.02 16.38 62.22 16.31 61.45L15.35 49.65C15.29 48.88 15.81 48.25 16.52 48.25L17.89 48.25C18.6 48.25 19.75 48.25 20.46 48.25L22.5 48.25C23.21 48.25 23.84 48.88 23.9 49.65L24.28 54.27C24.34 55.04 24.95 55.83 25.64 56.03L32.64 58.1C33.32 58.3 33.89 58.46 33.89 58.46C33.89 58.46 34.45 58.3 35.14 58.1L42.15 56.03C42.84 55.83 43.45 55.03 43.51 54.26L44.27 45.01C44.34 44.24 43.81 43.61 43.1 43.61L35.21 43.61C34.5 43.61 33.92 43.61 33.91 43.61C33.9 43.61 33.32 43.61 32.61 43.61L16.14 43.61C15.43 43.61 14.8 42.98 14.74 42.21L12.87 19.38C12.81 18.61 12.71 17.42 12.66 16.74C12.6 16.05 13.13 15.49 13.84 15.49L32.61 15.49C33.32 15.49 33.9 15.49 33.91 15.49C33.92 15.49 34.5 15.49 35.21 15.49L53.95 15.49C54.66 15.49 55.19 16.05 55.14 16.74Z" fill="#DD512A" fill-opacity="1.000000" fill-rule="nonzero"/>
</svg>
