<svg width="40.000000" height="40.000000" viewBox="0 0 40 40" fill="none" xmlns="http://www.w3.org/2000/svg" xmlns:xlink="http://www.w3.org/1999/xlink">
	<desc>
			Created with Pixso.
	</desc>
	<defs>
		<clipPath id="clip8_190">
			<rect id="cil:money" width="40.000000" height="40.000000" fill="white" fill-opacity="0"/>
		</clipPath>
	</defs>
	<rect id="cil:money" width="40.000000" height="40.000000" fill="#FFFFFF" fill-opacity="0"/>
	<g clip-path="url(#clip8_190)">
		<path id="Vector" d="M33.75 5L1.25 5L1.25 30L33.75 30L33.75 5ZM31.25 27.5L3.75 27.5L3.75 7.5L31.25 7.5L31.25 27.5Z" fill="#F3F2F0" fill-opacity="1.000000" fill-rule="nonzero"/>
		<path id="Vector" d="M36.25 11.25L36.25 32.5L7.5 32.5L7.5 35L38.75 35L38.75 11.25L36.25 11.25Z" fill="#F3F2F0" fill-opacity="1.000000" fill-rule="nonzero"/>
		<path id="Vector" d="M17.5 23.62C20.6 23.62 23.12 20.88 23.12 17.51C23.12 14.13 20.6 11.39 17.5 11.39C14.39 11.39 11.87 14.13 11.87 17.51C11.87 20.88 14.39 23.62 17.5 23.62ZM17.5 13.89C19.22 13.89 20.62 15.51 20.62 17.51C20.62 19.5 19.22 21.12 17.5 21.12C15.77 21.12 14.37 19.5 14.37 17.51C14.37 15.51 15.77 13.89 17.5 13.89Z" fill="#F3F2F0" fill-opacity="1.000000" fill-rule="nonzero"/>
		<path id="Vector" d="M6.25 10.62L8.75 10.62L8.75 24.37L6.25 24.37L6.25 10.62Z" fill="#F3F2F0" fill-opacity="1.000000" fill-rule="nonzero"/>
		<path id="Vector" d="M26.25 10.62L28.75 10.62L28.75 24.37L26.25 24.37L26.25 10.62Z" fill="#F3F2F0" fill-opacity="1.000000" fill-rule="nonzero"/>
	</g>
</svg>
