<svg width="170.753052" height="24.000000" viewBox="0 0 170.753 24" fill="none" xmlns="http://www.w3.org/2000/svg" xmlns:xlink="http://www.w3.org/1999/xlink">
	<desc>
			Created with Pixso.
	</desc>
	<defs/>
	<path id="Обсудить проект" d="M18.76 6.36C19.65 6.36 20.31 6.36 20.73 6.06L21.47 7.64C20.72 8.26 19.85 8.32 18.07 8.35C16.04 8.37 15.22 9.25 15.02 11.39L15.1 11.39C15.63 10.32 16.57 9.72 17.97 9.72C20.2 9.72 21.69 11.25 21.69 13.8C21.69 16.47 20.07 18.17 17.43 18.17C14.78 18.17 13.15 16.47 13.15 13.3L13.15 12.58C13.15 8.37 14.81 6.39 17.98 6.36C18.15 6.36 18.31 6.36 18.47 6.36C18.54 6.36 18.62 6.36 18.69 6.36L18.76 6.36ZM6.25 6.2C9.33 6.2 11.7 8.37 11.7 12.18C11.7 15.98 9.33 18.16 6.25 18.16C3.15 18.16 0.8 15.97 0.8 12.18C0.8 8.37 3.15 6.2 6.25 6.2ZM6.25 15.98C8.03 15.98 9.21 14.64 9.21 12.18C9.21 9.71 8.03 8.37 6.25 8.37C4.46 8.37 3.3 9.71 3.3 12.18C3.3 14.64 4.46 15.98 6.25 15.98ZM31.14 14.8C31.03 16.8 29.57 18.17 27.25 18.17C24.56 18.17 22.95 16.32 22.95 13.67C22.95 10.99 24.59 9.16 27.23 9.16C29.51 9.16 31.04 10.48 31.14 12.5L28.86 12.5C28.73 11.62 28.16 11.04 27.27 11.04C26.15 11.04 25.41 11.98 25.41 13.63C25.41 15.3 26.14 16.25 27.27 16.25C28.1 16.25 28.71 15.73 28.86 14.8L31.14 14.8ZM95.5 21.27L93.08 21.27L93.08 9.27L95.47 9.27L95.47 10.73L95.58 10.73C95.9 10.02 96.6 9.16 98.06 9.16C99.97 9.16 101.59 10.64 101.59 13.64C101.59 16.56 100.04 18.14 98.05 18.14C96.64 18.14 95.91 17.32 95.58 16.6L95.5 16.6L95.5 21.27ZM111.44 13.67C111.44 16.35 109.79 18.17 107.14 18.17C104.5 18.17 102.85 16.35 102.85 13.67C102.85 10.96 104.5 9.16 107.14 9.16C109.79 9.16 111.44 10.96 111.44 13.67ZM120.95 15.5C120.61 17.12 119.15 18.17 116.99 18.17C114.31 18.17 112.67 16.44 112.67 13.67C112.67 10.98 114.33 9.16 116.9 9.16C119.2 9.16 121 10.62 121 13.58L121 14.25L115.06 14.25L115.06 14.26C115.06 15.56 115.83 16.36 117.04 16.36C117.84 16.36 118.47 16.01 118.71 15.35L120.95 15.5ZM37.44 18.94C36.95 20.35 36 21.27 34.19 21.27C33.58 21.27 33.02 21.17 32.67 21.02L33.22 19.21C34.07 19.47 34.68 19.43 35 18.62L35.14 18.25L32.01 9.27L34.55 9.27L36.36 15.68L36.45 15.68L38.27 9.27L40.84 9.27L37.44 18.94ZM43.06 20.55L40.69 20.55L40.69 16.07L41.36 16.07C42.12 15.59 42.29 13.83 42.43 12.12L42.66 9.27L49.35 9.27L49.35 16.07L50.7 16.07L50.7 20.55L48.39 20.55L48.39 18L43.06 18L43.06 20.55ZM54.41 9.27L54.41 14.8L57.56 9.27L59.95 9.27L59.95 18L57.64 18L57.64 12.44L54.51 18L52.1 18L52.1 9.27L54.41 9.27ZM63.81 11.17L61.02 11.17L61.02 9.27L68.93 9.27L68.93 11.17L66.12 11.17L66.12 18L63.81 18L63.81 11.17ZM72.71 9.27L72.71 11.95L74.52 11.95C76.83 11.95 78.19 13.15 78.2 14.98C78.19 16.78 76.83 18 74.52 18L70.4 18L70.4 9.27L72.71 9.27ZM85.8 18L83.52 18L83.52 9.27L91.15 9.27L91.15 18L88.84 18L88.84 11.17L85.8 11.17L85.8 18ZM125 18L122.58 18L122.58 9.27L125 9.27L125 12.66L125.68 12.66L128.06 9.27L130.9 9.27L127.81 13.6L130.93 18L128.06 18L125.9 14.9L125 14.9L125 18ZM134.28 11.17L131.5 11.17L131.5 9.27L139.41 9.27L139.41 11.17L136.59 11.17L136.59 18L134.28 18L134.28 11.17ZM116.94 10.96C115.86 10.96 115.11 11.76 115.06 12.75L118.72 12.75C118.72 11.71 117.99 10.96 116.94 10.96ZM105.31 13.65C105.31 15.17 105.93 16.29 107.16 16.29C108.36 16.29 108.98 15.17 108.98 13.65C108.98 12.12 108.36 11 107.16 11C105.93 11 105.31 12.12 105.31 13.65ZM97.29 11.08C96.11 11.08 95.45 12.07 95.45 13.63C95.45 15.19 96.12 16.21 97.29 16.21C98.47 16.21 99.12 15.16 99.12 13.63C99.12 12.12 98.49 11.08 97.29 11.08ZM44.62 12.12C44.49 13.98 44.29 15.26 43.77 16.07L47.06 16.07L47.06 11.13L44.71 11.13L44.62 12.12ZM15.61 13.88C15.61 15.37 16.3 16.29 17.44 16.29C18.55 16.29 19.23 15.37 19.23 13.88C19.23 12.39 18.55 11.55 17.43 11.55C16.3 11.55 15.62 12.39 15.61 13.88ZM74.52 13.85L72.71 13.85L72.71 16.09L74.52 16.09C75.33 16.09 75.91 15.64 75.92 15C75.91 14.33 75.33 13.85 74.52 13.85Z" fill="#F3F2F0" fill-opacity="1.000000" fill-rule="evenodd"/>
	<path id="Arrow 1" d="M168.18 12.25L165.22 9.28C164.93 8.99 164.93 8.52 165.22 8.22C165.52 7.92 165.99 7.92 166.28 8.22L170.53 12.46C170.82 12.76 170.82 13.23 170.53 13.53L166.28 17.77C165.99 18.07 165.52 18.07 165.22 17.77C164.93 17.47 164.93 17 165.22 16.71L168.18 13.75L155 13.75L155 12.25L168.18 12.25Z" fill="#F3F2F0" fill-opacity="1.000000" fill-rule="evenodd"/>
</svg>
