<svg width="75.773193" height="81.900024" viewBox="0 0 75.7732 81.9" fill="none" xmlns="http://www.w3.org/2000/svg" xmlns:xlink="http://www.w3.org/1999/xlink">
	<desc>
			Created with Pixso.
	</desc>
	<defs>
		<clipPath id="clip8_235">
			<rect id="jquery 1" width="75.773193" height="81.900002" fill="white" fill-opacity="0"/>
		</clipPath>
	</defs>
	<g style="mix-blend-mode:luminosity">
		<rect id="jquery 1" width="75.773193" height="81.900002" fill="#FFFFFF" fill-opacity="0"/>
		<g clip-path="url(#clip8_235)">
			<path id="Vector" d="M5.07 20.16C-1.57 30.48 -0.74 43.9 4.33 54.86C4.45 55.12 4.58 55.38 4.7 55.64C4.78 55.81 4.86 55.97 4.94 56.13C4.99 56.23 5.04 56.33 5.09 56.42C5.18 56.59 5.26 56.76 5.35 56.93C5.51 57.23 5.67 57.53 5.84 57.83C5.93 57.99 6.02 58.16 6.11 58.32C6.3 58.64 6.48 58.96 6.68 59.27C6.76 59.4 6.83 59.54 6.92 59.67C7.18 60.1 7.45 60.52 7.73 60.94C7.74 60.95 7.75 60.96 7.75 60.97C7.8 61.04 7.85 61.11 7.89 61.17C8.13 61.53 8.38 61.89 8.63 62.24C8.73 62.37 8.82 62.5 8.91 62.62C9.14 62.93 9.37 63.23 9.6 63.53C9.68 63.65 9.77 63.76 9.86 63.87C10.17 64.27 10.49 64.66 10.82 65.05C10.82 65.06 10.83 65.07 10.83 65.07C10.85 65.09 10.86 65.1 10.87 65.12C11.19 65.49 11.51 65.86 11.84 66.22C11.94 66.34 12.05 66.45 12.15 66.56C12.41 66.84 12.67 67.11 12.93 67.38C13.03 67.49 13.14 67.6 13.25 67.71C13.59 68.06 13.95 68.41 14.31 68.75C14.31 68.76 14.32 68.77 14.32 68.77C14.39 68.83 14.45 68.88 14.51 68.94C14.83 69.24 15.15 69.53 15.47 69.82C15.61 69.94 15.74 70.05 15.87 70.16C16.14 70.39 16.41 70.62 16.68 70.84C16.82 70.96 16.96 71.08 17.11 71.2C17.41 71.43 17.71 71.67 18.01 71.9C18.12 71.98 18.23 72.07 18.34 72.15C18.37 72.17 18.4 72.2 18.43 72.22C18.72 72.43 19.01 72.64 19.31 72.85C19.43 72.94 19.56 73.03 19.69 73.12C20.14 73.43 20.59 73.73 21.06 74.03C21.18 74.1 21.31 74.18 21.44 74.26C21.78 74.47 22.12 74.68 22.47 74.88C22.65 74.99 22.85 75.1 23.04 75.2C23.28 75.34 23.52 75.48 23.77 75.61C23.83 75.64 23.89 75.67 23.94 75.7C24.04 75.75 24.15 75.81 24.25 75.86C24.63 76.06 25.02 76.26 25.41 76.44C25.5 76.48 25.58 76.52 25.66 76.56C26.11 76.78 26.56 76.98 27.02 77.18C27.13 77.22 27.25 77.27 27.36 77.32C27.78 77.49 28.21 77.67 28.64 77.83C28.7 77.85 28.75 77.87 28.8 77.89C29.28 78.07 29.75 78.24 30.24 78.4C30.35 78.44 30.47 78.48 30.58 78.51C31.07 78.67 31.56 78.86 32.06 78.96C64.18 85.29 73.51 58.1 73.51 58.1C65.68 69.14 51.77 72.05 38.59 68.81C38.09 68.68 37.61 68.52 37.12 68.36C36.99 68.32 36.87 68.28 36.75 68.24C36.28 68.08 35.8 67.92 35.34 67.74C35.27 67.72 35.21 67.69 35.14 67.67C34.72 67.51 34.31 67.34 33.89 67.17C33.77 67.12 33.66 67.07 33.54 67.02C33.09 66.82 32.64 66.62 32.19 66.41C32.1 66.37 32.01 66.33 31.92 66.28C31.54 66.1 31.16 65.91 30.79 65.71C30.68 65.65 30.57 65.6 30.46 65.54C30.16 65.38 29.87 65.22 29.58 65.06C29.38 64.95 29.18 64.84 28.99 64.72C28.64 64.52 28.29 64.3 27.94 64.09C27.82 64.01 27.7 63.94 27.58 63.87C27.12 63.58 26.66 63.27 26.21 62.96C26.08 62.88 25.96 62.78 25.84 62.7C25.51 62.47 25.18 62.23 24.86 61.99C24.75 61.92 24.65 61.83 24.55 61.75C24.24 61.52 23.93 61.28 23.62 61.03C23.48 60.92 23.35 60.81 23.21 60.7C22.93 60.47 22.66 60.23 22.38 59.99C22.26 59.89 22.13 59.78 22.01 59.67C21.66 59.36 21.31 59.05 20.97 58.73C20.93 58.69 20.9 58.66 20.86 58.62C20.49 58.27 20.12 57.91 19.77 57.55C19.66 57.44 19.56 57.34 19.46 57.23C19.19 56.96 18.93 56.68 18.67 56.4C18.57 56.29 18.47 56.18 18.37 56.07C18.04 55.71 17.72 55.34 17.4 54.97C17.39 54.95 17.37 54.93 17.36 54.91C17.02 54.52 16.7 54.12 16.38 53.71C16.3 53.6 16.21 53.49 16.13 53.39C15.89 53.08 15.65 52.76 15.42 52.45C15.34 52.33 15.25 52.22 15.17 52.1C14.89 51.71 14.62 51.33 14.35 50.93C7.04 40.15 4.41 25.27 10.26 13.05L5.07 20.16Z" fill="#F3F2F0" fill-opacity="1.000000" fill-rule="nonzero"/>
			<path id="Vector" d="M25.69 11.47C20.89 18.94 21.15 28.94 24.89 36.84C25.52 38.16 26.23 39.45 27.02 40.67C27.74 41.79 28.54 43.11 29.49 44.01C29.84 44.42 30.2 44.82 30.57 45.22C30.66 45.32 30.76 45.42 30.85 45.52C31.21 45.89 31.58 46.27 31.95 46.62C31.97 46.64 31.98 46.65 32 46.67C32 46.67 32.01 46.67 32.01 46.68C32.43 47.07 32.86 47.45 33.29 47.83C33.39 47.91 33.49 47.99 33.59 48.07C34.02 48.44 34.47 48.8 34.93 49.14C34.94 49.15 34.96 49.16 34.97 49.17C35.17 49.32 35.38 49.46 35.58 49.6C35.68 49.67 35.78 49.75 35.88 49.81C36.2 50.04 36.53 50.26 36.87 50.47C36.92 50.51 36.97 50.53 37.01 50.56C37.3 50.74 37.6 50.92 37.89 51.09C38 51.16 38.1 51.21 38.21 51.27C38.41 51.39 38.62 51.5 38.82 51.62C38.85 51.63 38.89 51.65 38.92 51.66C39.34 51.89 39.77 52.1 40.2 52.31C40.3 52.35 40.39 52.39 40.49 52.43C40.84 52.59 41.19 52.75 41.54 52.9C41.69 52.96 41.84 53.02 41.99 53.08C42.31 53.2 42.64 53.32 42.96 53.44C43.11 53.49 43.25 53.54 43.4 53.59C43.86 53.75 44.32 53.94 44.8 54.03C69.6 58.47 75.32 37.83 75.32 37.83C70.16 45.86 60.17 49.7 49.5 46.71C49.03 46.57 48.56 46.43 48.1 46.27C47.96 46.22 47.82 46.17 47.67 46.12C47.35 46 47.02 45.88 46.69 45.75C46.54 45.7 46.39 45.64 46.25 45.58C45.89 45.43 45.54 45.28 45.19 45.11C45.1 45.07 45 45.03 44.91 44.98C44.47 44.78 44.04 44.56 43.61 44.34C43.39 44.22 43.18 44.1 42.96 43.98C42.84 43.91 42.71 43.84 42.59 43.77C42.31 43.61 42.04 43.44 41.77 43.27C41.7 43.23 41.64 43.19 41.57 43.15C41.24 42.94 40.91 42.72 40.58 42.49C40.48 42.42 40.38 42.35 40.28 42.28C40.06 42.13 39.85 41.97 39.63 41.82C39.18 41.48 38.73 41.12 38.29 40.76C38.19 40.67 38.09 40.59 37.99 40.5C33.32 36.52 29.62 31.07 27.87 24.9C26.02 18.5 26.42 11.31 29.61 5.48L25.69 11.47Z" fill="#F3F2F0" fill-opacity="1.000000" fill-rule="nonzero"/>
			<path id="Vector" d="M43.03 4.97C40.2 9.48 39.92 15.07 41.88 20.04C43.96 25.32 48.2 29.47 53.16 31.43C53.36 31.51 53.56 31.58 53.77 31.66C53.86 31.69 53.95 31.72 54.04 31.75C54.33 31.85 54.62 31.97 54.93 32.03C68.62 34.89 72.33 24.43 73.32 22.89C70.07 27.96 64.6 29.17 57.89 27.41C57.36 27.27 56.78 27.07 56.27 26.87C55.61 26.62 54.97 26.33 54.34 26.01C53.15 25.39 52.02 24.64 50.96 23.78C44.96 18.85 41.23 9.46 45.15 1.81L43.03 4.97Z" fill="#F3F2F0" fill-opacity="1.000000" fill-rule="nonzero"/>
		</g>
	</g>
</svg>
