<svg width="71.134018" height="76.885742" viewBox="0 0 71.134 76.8857" fill="none" xmlns="http://www.w3.org/2000/svg" xmlns:xlink="http://www.w3.org/1999/xlink">
	<desc>
			Created with Pixso.
	</desc>
	<defs>
		<clipPath id="clip8_243">
			<rect id="Unofficial_JavaScript_logo_2 1" width="71.134018" height="76.885719" fill="white" fill-opacity="0"/>
		</clipPath>
	</defs>
	<g style="mix-blend-mode:luminosity">
		<rect id="Unofficial_JavaScript_logo_2 1" width="71.134018" height="76.885719" fill="#FFFFFF" fill-opacity="0"/>
		<g clip-path="url(#clip8_243)">
			<path id="Vector" d="M0 0L71.13 0L71.13 76.88L0 76.88L0 0Z" fill="#F7DF1E" fill-opacity="1.000000" fill-rule="evenodd"/>
			<path id="Vector" d="M47.78 60.06C49.21 62.59 51.08 64.45 54.37 64.45C57.14 64.45 58.91 62.95 58.91 60.89C58.91 58.41 57.09 57.53 54.05 56.09L52.37 55.31C47.55 53.09 44.35 50.31 44.35 44.43C44.35 39.01 48.17 34.89 54.14 34.89C58.39 34.89 61.44 36.48 63.64 40.67L58.44 44.28C57.29 42.06 56.06 41.19 54.14 41.19C52.18 41.19 50.94 42.53 50.94 44.28C50.94 46.45 52.18 47.33 55.05 48.67L56.72 49.44C62.4 52.08 65.6 54.76 65.6 60.79C65.6 67.3 60.88 70.86 54.53 70.86C48.32 70.86 44.31 67.66 42.35 63.47L47.78 60.06ZM24.17 60.69C25.22 62.7 26.17 64.4 28.47 64.4C30.66 64.4 32.05 63.48 32.05 59.86L32.05 35.3L38.73 35.3L38.73 59.96C38.73 67.44 34.68 70.85 28.75 70.85C23.4 70.85 20.3 67.85 18.72 64.25L24.17 60.69Z" fill="#F3F2F0" fill-opacity="1.000000" fill-rule="nonzero"/>
		</g>
	</g>
</svg>
